<svg xmlns="http://www.w3.org/2000/svg" xmlns:xlink="http://www.w3.org/1999/xlink" fill="none" version="1.1" width="89" height="16" viewBox="0 0 89 16"><defs><clipPath id="master_svg0_485_70884"><rect x="0" y="0" width="50" height="16" rx="0"/></clipPath></defs><g><g clip-path="url(#master_svg0_485_70884)"><g><g><path d="M3.07937,13.549296860351562C2.53075,13.549296860351562,2.02194,13.429296860351563,1.55296,13.189306860351563C1.08397,12.949296860351563,0.707902,12.601936860351563,0.424741,12.147196860351563C0.14158,11.692456860351562,0,11.145086860351562,0,10.505086860351563C0,9.932456860351563,0.0995487,9.406146860351562,0.298646,8.926146860351562C0.497743,8.446146860351563,0.778692,8.029296860351563,1.14149,7.675616860351562C1.50429,7.321932860351563,1.92461,7.046143860351562,2.40244,6.848248860351562C2.88028,6.650354060351562,3.3935,6.5514068603515625,3.94213,6.5514068603515625C4.535,6.5514068603515625,5.0438,6.656669860351562,5.46854,6.867195860351562C5.89328,7.077722860351562,6.20963,7.404037860351562,6.41757,7.8461468603515625C6.62552,8.288246860351563,6.69852,8.858776860351563,6.63658,9.557726860351563C6.59234,10.357726860351562,6.41979,11.058776860351562,6.11893,11.660876860351562C5.81807,12.262986860351562,5.41324,12.728246860351563,4.90443,13.056666860351562C4.39563,13.385086860351564,3.78727,13.549306860351562,3.07937,13.549296860351562ZM3.71649,11.919826860351563C4.12353,11.919826860351563,4.48412,11.825086860351561,4.79825,11.635616860351561C5.11238,11.446146860351561,5.36014,11.185086860351563,5.54154,10.852456860351563C5.72294,10.519826860351563,5.81364,10.130356860351561,5.81364,9.684036860351561C5.81364,9.237726860351563,5.66985,8.854566860351563,5.38227,8.585086860351563C5.09468,8.315616860351563,4.69427,8.180876860351562,4.18105,8.180876860351562C3.78285,8.180876860351562,3.42447,8.275616860351562,3.10592,8.465086860351562C2.78736,8.654566860351562,2.53739,8.915616860351562,2.35598,9.248246860351562C2.17459,9.580876860351562,2.08389,9.970356860351563,2.08389,10.416666860351562C2.08389,10.862986860351562,2.22768,11.246146860351562,2.51526,11.515616860351562C2.80285,11.785086860351562,3.20326,11.919826860351563,3.71649,11.919826860351563ZM5.13671,13.446146860351561L5.41545,12.094566860351563L5.88001,10.073506860351563L6.15875,8.052456860351562L6.45076,6.650353660351563L8.52137,6.650353660351563L7.10114,13.446146860351561L5.13671,13.446146860351561Z" fill="#000000" fill-opacity="1" style="mix-blend-mode:passthrough"/></g><g><path d="M12.783334374999999,13.549296860351562C12.048884375,13.549296860351562,11.409554374999999,13.422986860351562,10.865354374999999,13.170356860351562C10.321154375,12.917716860351563,9.898630375,12.564036860351562,9.597772375,12.109296860351563C9.296913375,11.654566860351562,9.146484375,11.119826860351562,9.146484375,10.505086860351563C9.146484375,9.747196860351563,9.332308375,9.071406860351562,9.703957375,8.477726860351563C10.075605375,7.8840368603515625,10.588834375,7.414564860351563,11.243644375,7.069301860351563C11.898454375,6.724038860351563,12.650594375,6.5514068603515625,13.500084375,6.5514068603515625C14.261074375,6.5514068603515625,14.920314375,6.700880860351562,15.477784374999999,6.999827860351562C16.035254375,7.2987758603515625,16.446724375,7.721936860351563,16.712184375,8.269296860351563L14.960134374999999,9.102986860351562C14.809704374999999,8.782986860351564,14.599544375,8.549296860351562,14.329654375,8.401936860351562C14.059764375,8.254566860351563,13.738994375,8.180876860351562,13.367354375,8.180876860351562C12.960304375,8.180876860351562,12.597504375,8.275616860351562,12.278954375,8.465086860351562C11.960394375,8.654566860351562,11.708204375000001,8.915616860351562,11.522384375,9.248246860351562C11.336554375,9.580876860351562,11.243644375,9.966146860351563,11.243644375,10.404036860351562C11.243644375,10.867196860351562,11.387434375,11.235616860351563,11.675024375,11.509306860351563C11.962604375,11.782986860351564,12.371864375,11.919826860351563,12.902794375,11.919826860351563C13.265594375,11.919826860351563,13.597424375,11.846146860351563,13.898274375,11.698776860351561C14.199134375,11.551406860351562,14.451324375,11.321936860351563,14.654844375,11.010356860351562L16.181264374999998,11.919826860351563C15.845014375,12.433516860351563,15.378234375,12.833516860351562,14.780944375,13.119826860351562C14.183654375,13.406146860351562,13.517784375,13.549306860351562,12.783334374999999,13.549296860351562Z" fill="#000000" fill-opacity="1" style="mix-blend-mode:passthrough"/></g></g><g><g><path d="M35.427228930664064,13.548802280273438C34.84320893066406,13.548802280273438,34.338828930664064,13.428802280273437,33.914088930664064,13.188802280273437C33.48934393066406,12.948802280273437,33.188485930664065,12.597222280273439,33.01150993066406,12.134072280273436C32.83453343066406,11.670912280273438,32.816835530664065,11.098282280273438,32.958415730664065,10.416172280273438L33.74153093066406,6.651963083367438L35.812148930664065,6.651963083367438L35.05557893066406,10.289862280273438C34.949388930664064,10.786702280273438,34.99141893066406,11.169862280273438,35.18166893066406,11.439332280273437C35.371918930664066,11.708802280273439,35.71038893066406,11.843542280273438,36.19706893066406,11.843542280273438C36.71029893066406,11.843542280273438,37.141678930664064,11.700382280273438,37.49119893066406,11.414072280273437C37.84072893066406,11.127752280273437,38.07300893066406,10.689862280273438,38.188038930664064,10.100382280273438L38.91806893066406,6.6519622802734375L40.988678930664065,6.6519622802734375L39.56844893066406,13.447752280273438L37.60401893066406,13.447752280273438L38.002218930664064,11.527752280273438L38.29422893066406,12.108802280273437C37.95797893066406,12.605642280273438,37.537658930664065,12.969852280273438,37.03327893066406,13.201432280273437C36.52889893066406,13.433012280273438,35.99354893066406,13.548802280273438,35.427228930664064,13.548802280273438Z" fill="#000000" fill-opacity="1" style="mix-blend-mode:passthrough"/></g><g><path d="M41.98354955566406,16.001432280273438C41.62074955566406,16.001432280273438,41.26015955566406,15.946702280273437,40.901787555664065,15.837222280273437C40.54341255566406,15.727752280273437,40.258038555664065,15.584592280273437,40.04566955566406,15.407752280273437L41.00133855566406,13.993012280273437C41.15176955566406,14.119332280273436,41.32210955566406,14.220382280273437,41.51235955566406,14.296172280273439C41.702599555664065,14.371962280273436,41.91275955566406,14.409862280273437,42.142829555664065,14.409862280273437C42.40828955566406,14.409862280273437,42.64057955566406,14.346702280273437,42.83966955566406,14.220382280273437C43.03876955566406,14.094072280273437,43.23564955566406,13.879332280273438,43.43032955566406,13.576172280273438L44.00106955566406,12.717222280273438L44.18689955566406,12.515122280273438L47.956469555664064,6.654068800273437L50.00053955566406,6.654068800273437L45.24874955566406,13.904592280273437C44.894799555664065,14.435122280273436,44.556329555664064,14.854072280273437,44.23334955566406,15.161432280273438C43.91036955566406,15.468802280273437,43.569699555664066,15.685642280273438,43.21131955566406,15.811962280273438C42.85294955566406,15.938272280273438,42.443689555664065,16.001432280273438,41.98354955566406,16.001432280273438ZM43.56305955566406,13.713012280273437L41.85081955566406,6.6519622802734375L43.92142955566406,6.6519622802734375L45.22219955566406,12.336172280273438L43.56305955566406,13.713012280273437Z" fill="#000000" fill-opacity="1" style="mix-blend-mode:passthrough"/></g></g><g><g><path d="M31.28997335205078,6.982170567626953L31.157173352050783,7.883220567626953C30.65947335205078,11.260100567626953,27.458433352050783,14.123200567626952,23.89680335205078,14.218000567626953C20.33517335205078,14.312700567626953,17.598685352050783,11.500100567626953,18.111914052050782,8.022170567626953L19.109613352050783,1.2579605676269532C19.213583352050783,0.5611165676269532,19.89051335205078,-0.005199432373046875,20.622753352050783,-0.005199432373046875C21.35499335205078,-0.005199432373046875,21.866003352050782,0.5611165676269532,21.76424335205078,1.2579605676269532L20.78203335205078,7.908480567626953C20.45905335205078,10.091600567626953,22.078383352050782,11.855900567626954,24.39233335205078,11.681100567626952C26.396583352050783,11.531600567626953,28.19727335205078,9.946380567626953,28.48047335205078,8.022170567626953L28.63527335205078,6.980060567626953C28.73927335205078,6.2832205676269535,29.41627335205078,5.716910567626953,30.14847335205078,5.716910567626953C30.88067335205078,5.716910567626953,31.39167335205078,6.2832205676269535,31.28997335205078,6.980060567626953L31.28997335205078,6.982170567626953Z" fill="#000000" fill-opacity="1"/></g><g><path d="M31.86389772705078,3.275538692626953C31.75992772705078,3.972378692626953,31.08299772705078,4.538698692626953,30.35075772705078,4.538698692626953C29.61852272705078,4.538698692626953,29.10750682705078,3.972378692626953,29.209265827050782,3.275538692626953C29.31323872705078,2.578694692626953,29.99016972705078,2.012378692626953,30.722407727050783,2.012378692626953C31.45463772705078,2.012378692626953,31.965657727050782,2.578694692626953,31.86389772705078,3.275538692626953Z" fill="#000000" fill-opacity="1"/></g><g><path d="M27.105901477050782,8.539210567626952C27.001931477050782,9.236050567626954,26.325001477050783,9.802370567626953,25.592761477050782,9.802370567626953L23.15935147705078,9.802370567626953C22.42711647705078,9.802370567626953,21.916098877050782,9.236050567626954,22.017859577050782,8.539210567626952C22.12183247705078,7.842366567626954,22.79876347705078,7.276050567626953,23.531001477050783,7.276050567626953L25.96441147705078,7.276050567626953C26.696651477050782,7.276050567626953,27.20766147705078,7.842366567626954,27.105901477050782,8.539210567626952Z" fill="#000000" fill-opacity="1"/></g><g><path d="M27.551213977050782,5.111476192626953C27.447243977050782,5.808316192626953,26.770313977050783,6.374636192626953,26.038073977050782,6.374636192626953L23.60466397705078,6.374636192626953C22.87242897705078,6.374636192626953,22.361411377050782,5.808316192626953,22.463172077050782,5.111476192626953C22.56714497705078,4.414632192626954,23.24407597705078,3.848316192626953,23.976313977050783,3.848316192626953L26.40972397705078,3.848316192626953C27.141963977050782,3.848316192626953,27.65297397705078,4.414632192626954,27.551213977050782,5.111476192626953Z" fill="#000000" fill-opacity="1"/></g></g></g><g><rect x="53" y="3" width="36" height="13" rx="2" fill="#000000" fill-opacity="1"/></g><g><path d="M57.1365,12.905L61.36575,12.905L61.36575,13.37412L57.1365,13.37412L57.1365,12.905ZM55.8105,8.525500000000001L62.323,8.525500000000001L62.323,9.8515L61.71488,9.8515L61.71488,9.000869999999999L56.38875,9.000869999999999L56.38875,9.8515L55.8105,9.8515L55.8105,8.525500000000001ZM57.09825,9.49775L61.3395,9.49775L61.3395,11.105879999999999L57.09825,11.105879999999999L57.09825,10.64612L60.75488,10.64612L60.75488,9.9575L57.09825,9.9575L57.09825,9.49775ZM57.12813,11.659500000000001L61.76163,11.659500000000001L61.76163,13.62963L61.16775,13.62963L61.16775,12.13037L57.12813,12.13037L57.12813,11.659500000000001ZM56.68988,9.49775L57.29313,9.49775L57.29313,13.64425L56.68988,13.64425L56.68988,9.49775ZM58.524,8.01675L59.05825,7.90637Q59.1765,8.07087,59.28025,8.28587Q59.38413,8.50075,59.422380000000004,8.657250000000001L58.86138,8.788499999999999Q58.82138,8.63337,58.72375,8.41775Q58.62625,8.20212,58.524,8.01675ZM56.323,6.932L58.86963,6.932L58.86963,7.37612L56.323,7.37612L56.323,6.932ZM59.65763,6.93687L62.5225,6.93687L62.5225,7.381L59.65763,7.381L59.65763,6.93687ZM56.33413,6.25075L56.91688,6.359500000000001Q56.74475,6.9305,56.464,7.46037Q56.18325,7.99025,55.860625,8.3565Q55.807125,8.3155,55.713375,8.261Q55.619625,8.2065,55.520375,8.155999999999999Q55.421125,8.10537,55.345375,8.07387Q55.677875,7.73437,55.93175,7.251250000000001Q56.18563,6.76812,56.33413,6.25075ZM59.71825,6.2605L60.3015,6.36787Q60.169,6.8523700000000005,59.93913,7.30462Q59.70925,7.75687,59.43463,8.07512Q59.38425,8.029250000000001,59.29363,7.97875Q59.203,7.92825,59.106880000000004,7.87537Q59.01075,7.822369999999999,58.93813,7.79075Q59.20837,7.50412,59.40975,7.10012Q59.61112,6.6961200000000005,59.71825,6.2605ZM56.98875,7.2627500000000005L57.4695,7.108750000000001Q57.62425,7.3345,57.77963,7.6122499999999995Q57.935,7.890000000000001,57.99863,8.08512L57.488,8.2645Q57.42575,8.064499999999999,57.283,7.78212Q57.14038,7.49962,56.98875,7.2627500000000005ZM60.40388,7.304L60.8705,7.11525Q61.06038,7.33437,61.25088,7.604620000000001Q61.44138,7.874750000000001,61.528999999999996,8.06812L61.0375,8.29037Q60.95438,8.092120000000001,60.77338,7.81325Q60.59238,7.53425,60.40388,7.304ZM66.8066,8.683869999999999L66.8066,9.7135L69.7775,9.7135L69.7775,8.683869999999999L66.8066,8.683869999999999ZM66.8066,7.173L66.8066,8.18975L69.7775,8.18975L69.7775,7.173L66.8066,7.173ZM66.2564,6.65075L70.3545,6.65075L70.3545,10.23562L66.2564,10.23562L66.2564,6.65075ZM66.1593,11.175L70.4655,11.175L70.4655,11.72213L66.1593,11.72213L66.1593,11.175ZM65.5434,12.82512L70.7344,12.82512L70.7344,13.37537L65.5434,13.37537L65.5434,12.82512ZM63.36687,6.82L65.862,6.82L65.862,7.3845L63.36687,7.3845L63.36687,6.82ZM63.44862,9.1355L65.74719999999999,9.1355L65.74719999999999,9.69687L63.44862,9.69687L63.44862,9.1355ZM63.28063,12.1985Q63.6065,12.10563,64.01937,11.98012Q64.43237,11.8545,64.89338000000001,11.701Q65.3544,11.54737,65.8179,11.39537L65.9204,11.97237Q65.2696,12.18975,64.61525,12.412Q63.961,12.63425,63.429249999999996,12.81162L63.28063,12.1985ZM64.36162,7.04387L64.93863,7.04387L64.93863,12.00025L64.36162,12.1145L64.36162,7.04387ZM68.0312,6.8995L68.5553,6.8995L68.5553,9.978L68.5989,9.978L68.5989,13.07225L67.9876,13.07225L67.9876,9.978L68.0312,9.978L68.0312,6.8995ZM73.2856,11.21125L73.8841,11.42062Q73.6473,11.741,73.3447,12.06125Q73.0424,12.38138,72.719,12.66162Q72.3956,12.94175,72.0881,13.16125Q72.0316,13.103,71.9354,13.02812Q71.83930000000001,12.95337,71.74,12.87925Q71.6408,12.80513,71.5601,12.761Q72.0374,12.4705,72.5035,12.056Q72.9697,11.64138,73.2856,11.21125ZM76.0916,11.47988L76.56360000000001,11.17125Q76.8986,11.41212,77.2615,11.708870000000001Q77.62440000000001,12.00562,77.9494,12.29425Q78.2745,12.58288,78.486,12.81662L77.9779,13.17762Q77.78059999999999,12.95187,77.4625,12.65137Q77.1444,12.35075,76.7846,12.04288Q76.42490000000001,11.73487,76.0916,11.47988ZM74.7705,10.570879999999999L75.3786,10.570879999999999L75.3786,12.851Q75.3786,13.098,75.3113,13.23388Q75.2439,13.36987,75.0424,13.44738Q74.8439,13.52163,74.5375,13.535Q74.2313,13.54838,73.7881,13.54838Q73.7676,13.41438,73.70060000000001,13.245Q73.6336,13.07563,73.5594,12.95413Q73.805,12.96212,74.0194,12.96775Q74.2339,12.97325,74.3904,12.97075Q74.5469,12.96825,74.6091,12.96825Q74.70830000000001,12.96025,74.7394,12.93388Q74.7705,12.90738,74.7705,12.8385L74.7705,10.570879999999999ZM77.42099999999999,6.338620000000001L77.843,6.8398699999999995Q77.2766,6.9755,76.5759,7.08425Q75.8751,7.19287,75.1001,7.27225Q74.3253,7.3515,73.5365,7.40775Q72.7479,7.46387,72.0075,7.499499999999999Q71.9964,7.385870000000001,71.9498,7.2323699999999995Q71.9032,7.078749999999999,71.8544,6.97625Q72.5836,6.93762,73.3599,6.879Q74.1361,6.8203700000000005,74.8836,6.7411200000000004Q75.6311,6.66175,76.2831,6.56175Q76.9351,6.46175,77.42099999999999,6.338620000000001ZM72.0321,11.0395Q72.0228,10.9795,71.9911,10.878499999999999Q71.9596,10.77738,71.9233,10.67013Q71.887,10.562750000000001,71.8505,10.48225Q72.0431,10.45687,72.3146,10.344750000000001Q72.5861,10.2325,72.96039999999999,10.04537Q73.1666,9.94938,73.5666,9.7285Q73.9666,9.50762,74.4788,9.19237Q74.991,8.876999999999999,75.53790000000001,8.501000000000001Q76.0848,8.125,76.5877,7.7170000000000005L77.044,8.10787Q75.92060000000001,8.962869999999999,74.7558,9.628250000000001Q73.5909,10.2935,72.4531,10.778749999999999L72.4531,10.79612Q72.4531,10.79612,72.389,10.81662Q72.325,10.837,72.2426,10.87425Q72.1604,10.911380000000001,72.0963,10.95562Q72.0321,10.999880000000001,72.0321,11.0395ZM72.0321,11.0395L72.0196,10.61037L72.4224,10.39325L77.5433,10.052Q77.529,10.16412,77.529,10.30775Q77.529,10.45125,77.5321,10.538129999999999Q76.3461,10.62612,75.492,10.687750000000001Q74.638,10.74925,74.0557,10.79488Q73.4736,10.84037,73.1087,10.875499999999999Q72.7439,10.91062,72.53450000000001,10.93525Q72.3253,10.95988,72.21600000000001,10.98462Q72.1069,11.00925,72.0321,11.0395ZM72.4679,9.37087Q72.4585,9.310749999999999,72.4294,9.212869999999999Q72.4002,9.115,72.3655,9.008379999999999Q72.33070000000001,8.90175,72.2992,8.82925Q72.417,8.815000000000001,72.5634,8.72925Q72.7099,8.64337,72.8841,8.51362Q72.9801,8.44787,73.1699,8.298Q73.3596,8.148,73.59819999999999,7.937250000000001Q73.837,7.72637,74.086,7.478619999999999Q74.3351,7.2308699999999995,74.5546,6.9745L75.0644,7.263Q74.5452,7.79875,73.979,8.2725Q73.4128,8.746120000000001,72.8546,9.091000000000001L72.8546,9.10525Q72.8546,9.10525,72.7967,9.12975Q72.7389,9.154119999999999,72.6613,9.1945Q72.5836,9.23475,72.5257,9.280619999999999Q72.4679,9.32638,72.4679,9.37087ZM72.4679,9.37087L72.4616,8.961870000000001L72.7962,8.783000000000001L75.5686,8.64212Q75.545,8.754249999999999,75.52850000000001,8.8925Q75.5121,9.030619999999999,75.5059,9.1175Q74.5546,9.1685,73.9825,9.20762Q73.4105,9.246749999999999,73.108,9.2715Q72.8055,9.29612,72.674,9.31837Q72.5426,9.340620000000001,72.4679,9.37087ZM76.3101,9.444130000000001L76.7723,9.20762Q77.0829,9.47787,77.3984,9.80013Q77.7139,10.12237,77.979,10.431750000000001Q78.2441,10.74113,78.40899999999999,10.98562L77.9312,11.27413Q77.7726,11.02163,77.50659999999999,10.70113Q77.2407,10.38062,76.9268,10.05062Q76.6128,9.720500000000001,76.3101,9.444130000000001ZM84.9318,8.5765L85.4001,8.338370000000001Q85.6161,8.618369999999999,85.8459,8.9415Q86.07560000000001,9.26462,86.2757,9.57Q86.476,9.87537,86.5915,10.11012L86.084,10.39275Q85.9748,10.16113,85.7847,9.846250000000001Q85.5947,9.53125,85.3721,9.197Q85.1495,8.86275,84.9318,8.5765ZM82.2598,7.44162L86.5806,7.44162L86.5806,7.98562L82.2598,7.98562L82.2598,7.44162ZM84.5876,10.18412L85.1753,10.18412L85.1753,12.71275Q85.1753,12.86875,85.2108,12.911Q85.2464,12.95325,85.3755,12.95325Q85.4159,12.95325,85.5278,12.95325Q85.6396,12.95325,85.75710000000001,12.95325Q85.8748,12.95325,85.9201,12.95325Q86.0103,12.95325,86.0553,12.87588Q86.10040000000001,12.7985,86.1213,12.56225Q86.1421,12.326,86.1501,11.84188Q86.2401,11.9225,86.3945,11.988Q86.549,12.05338,86.6675,12.08813Q86.64699999999999,12.6315,86.5804,12.935Q86.5139,13.23837,86.3733,13.35775Q86.2327,13.47725,85.9815,13.47725Q85.9401,13.47725,85.8435,13.47725Q85.747,13.47725,85.6292,13.47725Q85.5116,13.47725,85.4165,13.47725Q85.3215,13.47725,85.2801,13.47725Q85.0039,13.47725,84.8538,13.40938Q84.7036,13.3415,84.6456,13.17525Q84.5876,13.009,84.5876,12.71587L84.5876,10.18412ZM83.0805,10.197L83.673,10.197Q83.649,10.868500000000001,83.57130000000001,11.405380000000001Q83.4935,11.94225,83.3101,12.35763Q83.1269,12.773,82.7915,13.08175Q82.4562,13.39062,81.9091,13.61375Q81.87440000000001,13.535,81.8129,13.44363Q81.7515,13.35238,81.6798,13.26575Q81.60810000000001,13.17925,81.5387,13.12887Q82.0275,12.9435,82.3259,12.6835Q82.6243,12.4235,82.7824,12.07187Q82.9405,11.720130000000001,83.0025,11.25488Q83.0645,10.789629999999999,83.0805,10.197ZM82.2985,10.219999999999999L82.283,9.77037L82.6238,9.571L85.8441,9.300370000000001Q85.8472,9.41387,85.8661,9.556619999999999Q85.8851,9.69925,85.9025,9.78925Q84.9893,9.87725,84.3775,9.937999999999999Q83.7659,9.998619999999999,83.3825,10.04175Q82.9993,10.08475,82.7859,10.1135Q82.5725,10.14213,82.4689,10.166Q82.3652,10.18975,82.2985,10.219999999999999ZM83.7565,6.40837L84.314,6.2615Q84.449,6.500500000000001,84.58709999999999,6.79312Q84.72540000000001,7.08575,84.79599999999999,7.28125L84.2039,7.4663699999999995Q84.1394,7.258,84.0115,6.9598700000000004Q83.8836,6.66162,83.7565,6.40837ZM82.2985,10.219999999999999Q82.2844,10.1395,82.2463,10.0275Q82.20830000000001,9.9155,82.1686,9.80363Q82.129,9.69162,82.0925,9.630130000000001Q82.2073,9.603,82.3475,9.55125Q82.4879,9.499369999999999,82.60249999999999,9.391Q82.6875,9.309249999999999,82.8596,9.09287Q83.03190000000001,8.87637,83.23689999999999,8.60712Q83.44200000000001,8.337869999999999,83.6252,8.082370000000001Q83.8086,7.8267500000000005,83.9158,7.67162L84.6285,7.67162Q84.4786,7.89037,84.2668,8.18375Q84.055,8.47712,83.8239,8.78587Q83.5928,9.0945,83.377,9.36725Q83.1613,9.63987,83.0016,9.8235Q83.0016,9.8235,82.9295,9.847999999999999Q82.8575,9.87237,82.7537,9.91425Q82.6501,9.95612,82.5464,10.006630000000001Q82.4428,10.05713,82.3706,10.11162Q82.2985,10.16612,82.2985,10.219999999999999ZM79.5294,11.543Q79.5151,11.47975,79.4804,11.37162Q79.4456,11.2635,79.4062,11.15062Q79.3669,11.037749999999999,79.32900000000001,10.962119999999999Q79.4611,10.93675,79.6075,10.79562Q79.754,10.654499999999999,79.94290000000001,10.43363Q80.0389,10.32475,80.23349999999999,10.0775Q80.4281,9.83012,80.667,9.48837Q80.9059,9.14662,81.1551,8.748000000000001Q81.4044,8.34937,81.6096,7.9445L82.1461,8.26412Q81.6711,9.08138,81.1028,9.85337Q80.5344,10.625250000000001,79.9579,11.20787L79.9579,11.225249999999999Q79.9579,11.225249999999999,79.8923,11.256879999999999Q79.8266,11.28837,79.7436,11.33737Q79.6606,11.38637,79.595,11.44088Q79.5294,11.495370000000001,79.5294,11.543ZM79.5294,11.543L79.4919,11.03187L79.7851,10.81962L81.941,10.3925Q81.9316,10.51538,81.9365,10.669Q81.9415,10.82263,81.9556,10.91875Q81.2126,11.08187,80.7572,11.186630000000001Q80.30199999999999,11.29125,80.059,11.35512Q79.8161,11.41887,79.7045,11.46025Q79.593,11.501629999999999,79.5294,11.543ZM79.4783,9.618870000000001Q79.4609,9.5525,79.4246,9.43975Q79.3884,9.32687,79.3458,9.20387Q79.3032,9.08075,79.26050000000001,8.998750000000001Q79.3721,8.97337,79.489,8.842749999999999Q79.60589999999999,8.712119999999999,79.7388,8.50862Q79.8125,8.41087,79.9457,8.18337Q80.0791,7.95587,80.2437,7.641Q80.4084,7.3261199999999995,80.5746,6.96887Q80.741,6.61162,80.8681,6.251250000000001L81.4811,6.53162Q81.2644,7.02225,80.9984,7.51487Q80.7324,8.0075,80.44409999999999,8.45675Q80.156,8.905999999999999,79.8614,9.26637L79.8614,9.283750000000001Q79.8614,9.283750000000001,79.8044,9.317Q79.7475,9.35012,79.6698,9.404620000000001Q79.5921,9.45912,79.5351,9.51525Q79.4783,9.57125,79.4783,9.618870000000001ZM79.4783,9.618870000000001L79.4657,9.15775L79.759,8.967749999999999L81.259,8.809619999999999Q81.2354,8.92637,81.2213,9.074629999999999Q81.2073,9.22275,81.209,9.318999999999999Q80.6955,9.38825,80.3771,9.43487Q80.0588,9.4815,79.881,9.512Q79.7033,9.54237,79.6154,9.56712Q79.5276,9.591750000000001,79.4783,9.618870000000001ZM79.33279999999999,12.57438Q79.6621,12.48675,80.0824,12.36825Q80.5026,12.24963,80.9765,12.10738Q81.4504,11.965,81.93469999999999,11.82188L82.03190000000001,12.344Q81.3616,12.5615,80.6871,12.77687Q80.01259999999999,12.99212,79.473,13.17L79.33279999999999,12.57438Z" fill="#FFFFFF" fill-opacity="1"/></g></g></svg>